<svg xmlns="http://www.w3.org/2000/svg" viewBox="0 0 800 540" fill="none">
  <defs>
    <linearGradient id="kbg" x1="0" y1="0" x2="800" y2="540" gradientUnits="userSpaceOnUse">
      <stop offset="0%" stop-color="#0d1117"/>
      <stop offset="100%" stop-color="#161b22"/>
    </linearGradient>
    <linearGradient id="brandGrad" x1="0" y1="0" x2="1" y2="0">
      <stop offset="0%" stop-color="#a855f7"/>
      <stop offset="50%" stop-color="#9333ea"/>
      <stop offset="100%" stop-color="#db2777"/>
    </linearGradient>
    <filter id="shadow">
      <feDropShadow dx="0" dy="2" stdDeviation="4" flood-color="#000" flood-opacity="0.3"/>
    </filter>
    <pattern id="dots" x="0" y="0" width="24" height="24" patternUnits="userSpaceOnUse">
      <circle cx="2" cy="2" r="0.5" fill="#30363d" opacity="0.4"/>
    </pattern>
  </defs>

  <rect width="800" height="540" rx="12" fill="url(#kbg)"/>
  <rect width="800" height="540" rx="12" fill="url(#dots)" opacity="0.7"/>
  <rect width="800" height="540" rx="12" stroke="#30363d" stroke-width="1" fill="none"/>

  <text x="400" y="36" text-anchor="middle" fill="url(#brandGrad)" font-family="system-ui, -apple-system, sans-serif" font-size="18" font-weight="700">Connected Knowledge Graph</text>
  <text x="400" y="56" text-anchor="middle" fill="#8b949e" font-family="system-ui, -apple-system, sans-serif" font-size="12">Everything links together — AI sees the full picture</text>

  <!-- Edges -->
  <path d="M 240 156 C 280 140, 322 140, 360 156" stroke="#58a6ff" stroke-width="1.2" opacity="0.32" fill="none"/>
  <rect x="274" y="134" width="54" height="14" rx="7" fill="#0d1117" opacity="0.8"/>
  <text x="301" y="144" text-anchor="middle" fill="#58a6ff" font-family="monospace" font-size="7" opacity="0.75">fulfills</text>

  <path d="M 240 178 C 240 230, 250 254, 280 288" stroke="#58a6ff" stroke-width="1.2" opacity="0.22" fill="none"/>
  <path d="M 440 178 C 480 210, 510 236, 560 288" stroke="#f0883e" stroke-width="1.2" opacity="0.32" fill="none"/>
  <rect x="476" y="224" width="48" height="14" rx="7" fill="#0d1117" opacity="0.8"/>
  <text x="500" y="234" text-anchor="middle" fill="#f0883e" font-family="monospace" font-size="7" opacity="0.75">tracks</text>

  <path d="M 360 178 C 340 228, 326 250, 320 288" stroke="#f0883e" stroke-width="1.2" opacity="0.22" fill="none"/>
  <path d="M 480 178 C 560 146, 626 148, 680 176" stroke="#f778ba" stroke-width="1.2" opacity="0.32" fill="none"/>
  <rect x="552" y="144" width="50" height="14" rx="7" fill="#0d1117" opacity="0.8"/>
  <text x="577" y="154" text-anchor="middle" fill="#f778ba" font-family="monospace" font-size="7" opacity="0.75">recalls</text>

  <path d="M 660 200 C 620 250, 570 282, 360 314" stroke="#f778ba" stroke-width="1.2" opacity="0.18" fill="none"/>
  <path d="M 650 220 C 640 292, 612 330, 580 372" stroke="#f778ba" stroke-width="1.2" opacity="0.18" fill="none"/>
  <path d="M 360 320 C 420 320, 480 318, 540 320" stroke="#a371f7" stroke-width="1.2" opacity="0.22" fill="none"/>
  <path d="M 350 340 C 410 380, 480 388, 550 388" stroke="#a371f7" stroke-width="1.2" opacity="0.18" fill="none"/>
  <path d="M 560 352 C 560 362, 560 368, 560 372" stroke="#3fb950" stroke-width="1.2" opacity="0.18" fill="none"/>
  <path d="M 210 388 C 230 388, 242 388, 260 388" stroke="#79c0ff" stroke-width="1.2" opacity="0.22" fill="none"/>
  <path d="M 190 368 C 270 310, 380 262, 540 300" stroke="#79c0ff" stroke-width="1.2" opacity="0.14" fill="none"/>
  <path d="M 170 210 C 188 292, 286 346, 500 388" stroke="#58a6ff" stroke-width="1.2" opacity="0.14" fill="none"/>

  <!-- Top row -->
  <rect x="80" y="120" width="160" height="92" rx="12" fill="#58a6ff" opacity="0.1" filter="url(#shadow)"/>
  <rect x="80" y="120" width="160" height="92" rx="12" stroke="#58a6ff" stroke-width="1.2" fill="none"/>
  <text x="160" y="151" text-anchor="middle" fill="#58a6ff" font-family="system-ui, -apple-system, sans-serif" font-size="13" font-weight="600">Specs</text>
  <text x="160" y="171" text-anchor="middle" fill="#8b949e" font-family="system-ui, -apple-system, sans-serif" font-size="9">Requirements</text>
  <text x="160" y="185" text-anchor="middle" fill="#8b949e" font-family="system-ui, -apple-system, sans-serif" font-size="9">Acceptance Criteria</text>
  <rect x="115" y="192" width="90" height="12" rx="6" fill="#21262d"/>
  <text x="160" y="201" text-anchor="middle" fill="#58a6ff" font-family="monospace" font-size="7">specs/user-auth</text>

  <rect x="320" y="120" width="160" height="92" rx="12" fill="#f0883e" opacity="0.1" filter="url(#shadow)"/>
  <rect x="320" y="120" width="160" height="92" rx="12" stroke="#f0883e" stroke-width="1.2" fill="none"/>
  <text x="400" y="151" text-anchor="middle" fill="#f0883e" font-family="system-ui, -apple-system, sans-serif" font-size="13" font-weight="600">Tasks</text>
  <text x="400" y="171" text-anchor="middle" fill="#8b949e" font-family="system-ui, -apple-system, sans-serif" font-size="9">Plans + Progress</text>
  <text x="400" y="185" text-anchor="middle" fill="#8b949e" font-family="system-ui, -apple-system, sans-serif" font-size="9">Time Tracking</text>
  <rect x="355" y="192" width="90" height="12" rx="6" fill="#21262d"/>
  <text x="400" y="201" text-anchor="middle" fill="#f0883e" font-family="monospace" font-size="7">@task-42</text>

  <rect x="580" y="140" width="160" height="100" rx="12" fill="#f778ba" opacity="0.1" filter="url(#shadow)"/>
  <rect x="580" y="140" width="160" height="100" rx="12" stroke="#f778ba" stroke-width="1.2" fill="none"/>
  <text x="660" y="171" text-anchor="middle" fill="#f778ba" font-family="system-ui, -apple-system, sans-serif" font-size="13" font-weight="600">Memory</text>
  <text x="660" y="191" text-anchor="middle" fill="#8b949e" font-family="system-ui, -apple-system, sans-serif" font-size="9">3-Layer Recall</text>
  <rect x="600" y="200" width="42" height="14" rx="7" fill="#f778ba" opacity="0.14"/>
  <text x="621" y="210" text-anchor="middle" fill="#f778ba" font-family="system-ui, -apple-system, sans-serif" font-size="7">working</text>
  <rect x="648" y="200" width="40" height="14" rx="7" fill="#f778ba" opacity="0.14"/>
  <text x="668" y="210" text-anchor="middle" fill="#f778ba" font-family="system-ui, -apple-system, sans-serif" font-size="7">project</text>
  <rect x="694" y="200" width="36" height="14" rx="7" fill="#f778ba" opacity="0.14"/>
  <text x="712" y="210" text-anchor="middle" fill="#f778ba" font-family="system-ui, -apple-system, sans-serif" font-size="7">global</text>

  <!-- Middle row -->
  <rect x="240" y="288" width="160" height="84" rx="12" fill="#a371f7" opacity="0.1" filter="url(#shadow)"/>
  <rect x="240" y="288" width="160" height="84" rx="12" stroke="#a371f7" stroke-width="1.2" fill="none"/>
  <text x="320" y="318" text-anchor="middle" fill="#a371f7" font-family="system-ui, -apple-system, sans-serif" font-size="13" font-weight="600">Docs</text>
  <text x="320" y="338" text-anchor="middle" fill="#8b949e" font-family="system-ui, -apple-system, sans-serif" font-size="9">Guides + Patterns</text>
  <text x="320" y="352" text-anchor="middle" fill="#8b949e" font-family="system-ui, -apple-system, sans-serif" font-size="9">Nested Folders</text>
  <rect x="275" y="358" width="90" height="10" rx="5" fill="#21262d"/>
  <text x="320" y="365" text-anchor="middle" fill="#a371f7" font-family="monospace" font-size="6">@doc/patterns/auth</text>

  <rect x="480" y="288" width="160" height="64" rx="12" fill="#3fb950" opacity="0.1" filter="url(#shadow)"/>
  <rect x="480" y="288" width="160" height="64" rx="12" stroke="#3fb950" stroke-width="1.2" fill="none"/>
  <text x="560" y="315" text-anchor="middle" fill="#3fb950" font-family="system-ui, -apple-system, sans-serif" font-size="13" font-weight="600">Code</text>
  <text x="560" y="333" text-anchor="middle" fill="#8b949e" font-family="system-ui, -apple-system, sans-serif" font-size="9">AST Index + Deps</text>

  <!-- Bottom row -->
  <rect x="60" y="360" width="150" height="64" rx="12" fill="#79c0ff" opacity="0.1" filter="url(#shadow)"/>
  <rect x="60" y="360" width="150" height="64" rx="12" stroke="#79c0ff" stroke-width="1.2" fill="none"/>
  <text x="135" y="388" text-anchor="middle" fill="#79c0ff" font-family="system-ui, -apple-system, sans-serif" font-size="13" font-weight="600">Templates</text>
  <text x="135" y="406" text-anchor="middle" fill="#8b949e" font-family="system-ui, -apple-system, sans-serif" font-size="9">Code Generation</text>

  <rect x="480" y="360" width="160" height="64" rx="12" fill="#d29922" opacity="0.1" filter="url(#shadow)"/>
  <rect x="480" y="360" width="160" height="64" rx="12" stroke="#d29922" stroke-width="1.2" fill="none"/>
  <text x="560" y="388" text-anchor="middle" fill="#d29922" font-family="system-ui, -apple-system, sans-serif" font-size="13" font-weight="600">Decisions</text>
  <text x="560" y="406" text-anchor="middle" fill="#8b949e" font-family="system-ui, -apple-system, sans-serif" font-size="9">ADRs + Why</text>

  <!-- Search rail -->
  <rect x="120" y="468" width="560" height="44" rx="10" fill="#161b22" stroke="#30363d" stroke-width="1"/>
  <circle cx="150" cy="490" r="8" stroke="#a855f7" stroke-width="1.2" fill="none"/>
  <line x1="156" y1="496" x2="162" y2="502" stroke="#a855f7" stroke-width="1.2"/>
  <text x="175" y="486" fill="#e6edf3" font-family="system-ui, -apple-system, sans-serif" font-size="10" font-weight="600">Semantic Search</text>
  <text x="175" y="500" fill="#8b949e" font-family="system-ui, -apple-system, sans-serif" font-size="9">hybrid · semantic · keyword</text>
  <text x="400" y="494" fill="#30363d" font-family="system-ui, -apple-system, sans-serif" font-size="9">|</text>
  <text x="420" y="486" fill="#8b949e" font-family="system-ui, -apple-system, sans-serif" font-size="9">Search across all entities</text>
  <text x="420" y="500" fill="#8b949e" font-family="system-ui, -apple-system, sans-serif" font-size="9">with local AI models (offline)</text>
  <rect x="600" y="478" width="68" height="24" rx="12" fill="#a855f7" opacity="0.14"/>
  <rect x="600" y="478" width="68" height="24" rx="12" stroke="#a855f7" stroke-width="0.8" fill="none"/>
  <text x="634" y="494" text-anchor="middle" fill="#a855f7" font-family="monospace" font-size="9">retrieve</text>

  <text x="400" y="532" text-anchor="middle" fill="#484f58" font-family="system-ui, -apple-system, sans-serif" font-size="10">AI retrieves exactly the context it needs — no manual pasting</text>
</svg>
