<svg xmlns="http://www.w3.org/2000/svg" viewBox="0 0 800 620" fill="none">
  <defs>
    <linearGradient id="bg" x1="0" y1="0" x2="800" y2="620" gradientUnits="userSpaceOnUse">
      <stop offset="0%" stop-color="#0d1117"/>
      <stop offset="100%" stop-color="#161b22"/>
    </linearGradient>
    <linearGradient id="brandGrad" x1="0" y1="0" x2="1" y2="0">
      <stop offset="0%" stop-color="#a855f7"/>
      <stop offset="50%" stop-color="#9333ea"/>
      <stop offset="100%" stop-color="#db2777"/>
    </linearGradient>
    <filter id="shadow">
      <feDropShadow dx="0" dy="2" stdDeviation="4" flood-color="#000" flood-opacity="0.3"/>
    </filter>
    <pattern id="dots" x="0" y="0" width="24" height="24" patternUnits="userSpaceOnUse">
      <circle cx="2" cy="2" r="0.5" fill="#30363d" opacity="0.4"/>
    </pattern>
  </defs>

  <rect width="800" height="620" rx="12" fill="url(#bg)"/>
  <rect width="800" height="620" rx="12" fill="url(#dots)" opacity="0.7"/>
  <rect width="800" height="620" rx="12" stroke="#30363d" stroke-width="1" fill="none"/>

  <text x="400" y="36" text-anchor="middle" fill="url(#brandGrad)" font-family="system-ui, -apple-system, sans-serif" font-size="18" font-weight="700">AI Workflow with Knowns</text>
  <text x="400" y="56" text-anchor="middle" fill="#8b949e" font-family="system-ui, -apple-system, sans-serif" font-size="12">Choose the right path based on feature size</text>

  <!-- Top lane -->
  <rect x="140" y="84" width="180" height="64" rx="12" fill="#a371f7" opacity="0.1" filter="url(#shadow)"/>
  <rect x="140" y="84" width="180" height="64" rx="12" stroke="#a371f7" stroke-width="1.2" fill="none"/>
  <text x="230" y="111" text-anchor="middle" fill="#a371f7" font-family="system-ui, -apple-system, sans-serif" font-size="14" font-weight="600">Init</text>
  <text x="230" y="129" text-anchor="middle" fill="#8b949e" font-family="system-ui, -apple-system, sans-serif" font-size="10">Load context + memory</text>
  <rect x="185" y="134" width="64" height="12" rx="6" fill="#a371f7" opacity="0.14"/>
  <text x="217" y="143" text-anchor="middle" fill="#a371f7" font-family="monospace" font-size="7">/kn-init</text>

  <line x1="320" y1="116" x2="390" y2="116" stroke="#484f58" stroke-width="1.2" opacity="0.32"/>
  <polygon points="388,112 398,116 388,120" fill="#484f58" opacity="0.7"/>

  <rect x="410" y="84" width="180" height="64" rx="12" fill="#79c0ff" opacity="0.1" filter="url(#shadow)"/>
  <rect x="410" y="84" width="180" height="64" rx="12" stroke="#79c0ff" stroke-width="1.2" fill="none"/>
  <text x="500" y="111" text-anchor="middle" fill="#79c0ff" font-family="system-ui, -apple-system, sans-serif" font-size="14" font-weight="600">Research</text>
  <text x="500" y="129" text-anchor="middle" fill="#8b949e" font-family="system-ui, -apple-system, sans-serif" font-size="10">Explore code + patterns</text>
  <rect x="455" y="134" width="84" height="12" rx="6" fill="#79c0ff" opacity="0.14"/>
  <text x="497" y="143" text-anchor="middle" fill="#79c0ff" font-family="monospace" font-size="7">/kn-research</text>

  <line x1="500" y1="148" x2="500" y2="188" stroke="#484f58" stroke-width="1.2" opacity="0.32"/>
  <polygon points="496,186 500,196 504,186" fill="#484f58" opacity="0.7"/>

  <!-- Decision -->
  <polygon points="500,198 590,236 500,274 410,236" fill="#d29922" opacity="0.1"/>
  <polygon points="500,198 590,236 500,274 410,236" stroke="#d29922" stroke-width="1.2" fill="none"/>
  <text x="500" y="232" text-anchor="middle" fill="#d29922" font-family="system-ui, -apple-system, sans-serif" font-size="11" font-weight="600">Feature</text>
  <text x="500" y="246" text-anchor="middle" fill="#d29922" font-family="system-ui, -apple-system, sans-serif" font-size="11" font-weight="600">size?</text>

  <!-- Branch labels -->
  <rect x="282" y="224" width="56" height="16" rx="8" fill="#58a6ff" opacity="0.14"/>
  <text x="310" y="236" text-anchor="middle" fill="#58a6ff" font-family="system-ui, -apple-system, sans-serif" font-size="9" font-weight="600">Large</text>
  <rect x="514" y="280" width="64" height="16" rx="8" fill="#f0883e" opacity="0.14"/>
  <text x="546" y="292" text-anchor="middle" fill="#f0883e" font-family="system-ui, -apple-system, sans-serif" font-size="9" font-weight="600">Medium</text>
  <rect x="620" y="224" width="84" height="16" rx="8" fill="#3fb950" opacity="0.14"/>
  <text x="662" y="236" text-anchor="middle" fill="#3fb950" font-family="system-ui, -apple-system, sans-serif" font-size="9" font-weight="600">Quick fix</text>

  <!-- Left branch -->
  <line x1="410" y1="236" x2="210" y2="236" stroke="#58a6ff" stroke-width="1.2" opacity="0.32"/>
  <line x1="210" y1="236" x2="210" y2="304" stroke="#58a6ff" stroke-width="1.2" opacity="0.32"/>
  <polygon points="206,302 210,312 214,302" fill="#58a6ff" opacity="0.7"/>

  <!-- Middle branch -->
  <line x1="500" y1="274" x2="500" y2="304" stroke="#f0883e" stroke-width="1.2" opacity="0.32"/>
  <polygon points="496,302 500,312 504,302" fill="#f0883e" opacity="0.7"/>

  <!-- Right branch -->
  <line x1="590" y1="236" x2="690" y2="236" stroke="#3fb950" stroke-width="1.2" opacity="0.32"/>
  <line x1="690" y1="236" x2="690" y2="432" stroke="#3fb950" stroke-width="1.2" opacity="0.32"/>
  <polygon points="686,430 690,440 694,430" fill="#3fb950" opacity="0.7"/>

  <!-- Large path cards -->
  <rect x="120" y="314" width="180" height="64" rx="12" fill="#58a6ff" opacity="0.1" filter="url(#shadow)"/>
  <rect x="120" y="314" width="180" height="64" rx="12" stroke="#58a6ff" stroke-width="1.2" fill="none"/>
  <text x="210" y="341" text-anchor="middle" fill="#58a6ff" font-family="system-ui, -apple-system, sans-serif" font-size="14" font-weight="600">Spec</text>
  <text x="210" y="359" text-anchor="middle" fill="#8b949e" font-family="system-ui, -apple-system, sans-serif" font-size="10">Define ACs + design</text>
  <rect x="165" y="364" width="60" height="12" rx="6" fill="#58a6ff" opacity="0.14"/>
  <text x="195" y="373" text-anchor="middle" fill="#58a6ff" font-family="monospace" font-size="7">/kn-spec</text>

  <line x1="210" y1="378" x2="210" y2="414" stroke="#484f58" stroke-width="1.2" opacity="0.32"/>
  <polygon points="206,412 210,422 214,412" fill="#484f58" opacity="0.7"/>

  <rect x="120" y="424" width="180" height="64" rx="12" fill="#f0883e" opacity="0.1" filter="url(#shadow)"/>
  <rect x="120" y="424" width="180" height="64" rx="12" stroke="#f0883e" stroke-width="1.2" fill="none"/>
  <text x="210" y="451" text-anchor="middle" fill="#f0883e" font-family="system-ui, -apple-system, sans-serif" font-size="14" font-weight="600">Plan</text>
  <text x="210" y="469" text-anchor="middle" fill="#8b949e" font-family="system-ui, -apple-system, sans-serif" font-size="10">Break into tasks</text>
  <rect x="165" y="474" width="60" height="12" rx="6" fill="#f0883e" opacity="0.14"/>
  <text x="195" y="483" text-anchor="middle" fill="#f0883e" font-family="monospace" font-size="7">/kn-plan</text>

  <line x1="300" y1="456" x2="370" y2="456" stroke="#484f58" stroke-width="1.2" stroke-dasharray="5,3" opacity="0.32"/>

  <!-- Medium path card -->
  <rect x="410" y="314" width="180" height="64" rx="12" fill="#f0883e" opacity="0.1" filter="url(#shadow)"/>
  <rect x="410" y="314" width="180" height="64" rx="12" stroke="#f0883e" stroke-width="1.2" fill="none"/>
  <text x="500" y="341" text-anchor="middle" fill="#f0883e" font-family="system-ui, -apple-system, sans-serif" font-size="14" font-weight="600">Plan</text>
  <text x="500" y="359" text-anchor="middle" fill="#8b949e" font-family="system-ui, -apple-system, sans-serif" font-size="10">Gather context + steps</text>
  <rect x="455" y="364" width="60" height="12" rx="6" fill="#f0883e" opacity="0.14"/>
  <text x="485" y="373" text-anchor="middle" fill="#f0883e" font-family="monospace" font-size="7">/kn-plan</text>

  <line x1="500" y1="378" x2="500" y2="424" stroke="#484f58" stroke-width="1.2" opacity="0.32"/>
  <polygon points="496,422 500,432 504,422" fill="#484f58" opacity="0.7"/>

  <!-- Implement convergence -->
  <rect x="370" y="424" width="340" height="64" rx="12" fill="#f778ba" opacity="0.1" filter="url(#shadow)"/>
  <rect x="370" y="424" width="340" height="64" rx="12" stroke="#f778ba" stroke-width="1.2" fill="none"/>
  <text x="540" y="451" text-anchor="middle" fill="#f778ba" font-family="system-ui, -apple-system, sans-serif" font-size="14" font-weight="600">Implement</text>
  <text x="540" y="469" text-anchor="middle" fill="#8b949e" font-family="system-ui, -apple-system, sans-serif" font-size="10">Follow plan, check ACs, track progress</text>
  <rect x="495" y="474" width="84" height="12" rx="6" fill="#f778ba" opacity="0.14"/>
  <text x="537" y="483" text-anchor="middle" fill="#f778ba" font-family="monospace" font-size="7">/kn-implement</text>

  <!-- Review and commit -->
  <line x1="460" y1="488" x2="460" y2="524" stroke="#484f58" stroke-width="1.2" opacity="0.32"/>
  <polygon points="456,522 460,532 464,522" fill="#484f58" opacity="0.7"/>

  <rect x="310" y="536" width="160" height="60" rx="12" fill="#d29922" opacity="0.1" filter="url(#shadow)"/>
  <rect x="310" y="536" width="160" height="60" rx="12" stroke="#d29922" stroke-width="1.2" fill="none"/>
  <text x="390" y="562" text-anchor="middle" fill="#d29922" font-family="system-ui, -apple-system, sans-serif" font-size="14" font-weight="600">Review</text>
  <text x="390" y="580" text-anchor="middle" fill="#8b949e" font-family="system-ui, -apple-system, sans-serif" font-size="10">Multi-perspective check</text>
  <rect x="340" y="584" width="70" height="10" rx="5" fill="#d29922" opacity="0.14"/>
  <text x="375" y="592" text-anchor="middle" fill="#d29922" font-family="monospace" font-size="7">/kn-review</text>

  <line x1="470" y1="566" x2="530" y2="566" stroke="#484f58" stroke-width="1.2" opacity="0.32"/>
  <polygon points="528,562 538,566 528,570" fill="#484f58" opacity="0.7"/>

  <rect x="540" y="536" width="160" height="60" rx="12" fill="#3fb950" opacity="0.1" filter="url(#shadow)"/>
  <rect x="540" y="536" width="160" height="60" rx="12" stroke="#3fb950" stroke-width="1.2" fill="none"/>
  <text x="620" y="562" text-anchor="middle" fill="#3fb950" font-family="system-ui, -apple-system, sans-serif" font-size="14" font-weight="600">Commit</text>
  <text x="620" y="580" text-anchor="middle" fill="#8b949e" font-family="system-ui, -apple-system, sans-serif" font-size="10">Conventional format</text>
  <rect x="570" y="584" width="72" height="10" rx="5" fill="#3fb950" opacity="0.14"/>
  <text x="606" y="592" text-anchor="middle" fill="#3fb950" font-family="monospace" font-size="7">/kn-commit</text>

  <!-- Side hint -->
  <rect x="52" y="370" width="76" height="48" rx="8" fill="#58a6ff" opacity="0.1"/>
  <rect x="52" y="370" width="76" height="48" rx="8" stroke="#58a6ff" stroke-width="0.8" stroke-dasharray="4,2" fill="none"/>
  <text x="90" y="390" text-anchor="middle" fill="#58a6ff" font-family="system-ui, -apple-system, sans-serif" font-size="8" font-weight="600">New</text>
  <text x="90" y="404" text-anchor="middle" fill="#58a6ff" font-family="system-ui, -apple-system, sans-serif" font-size="8" font-weight="600">feature</text>

  <text x="400" y="612" text-anchor="middle" fill="#484f58" font-family="system-ui, -apple-system, sans-serif" font-size="10">Pick the right depth for the job — from quick fix to full spec-driven development</text>
</svg>
